<svg width="457" height="133" viewBox="0 0 457 133" fill="none" xmlns="http://www.w3.org/2000/svg">
<path d="M115.551 37.7174L73.7908 1.45587C73.4183 1.15481 72.978 0.987549 72.5038 0.987549H33.8936C32.0986 0.987549 31.2519 3.19535 32.6066 4.39961L42.4962 12.9967C43.4784 13.8664 43.3429 15.4052 42.2591 16.1077L1.10879 41.765C0.533022 42.133 0.194336 42.7351 0.194336 43.4042V94.8193C0.194336 95.388 0.431416 95.9232 0.871708 96.2911L42.6317 132.519C43.0043 132.82 43.4445 132.988 43.9187 132.988H82.5289C84.324 132.988 85.1707 130.78 83.8159 129.575L73.9263 120.978C72.9441 120.109 73.0796 118.57 74.1634 117.867L115.28 92.1431C115.856 91.7752 116.194 91.173 116.194 90.504V39.0889C116.194 38.5202 115.957 37.985 115.517 37.617L115.551 37.7174ZM70.2346 85.8208C69.6589 86.1888 69.3202 86.7909 69.3202 87.4599V112.783C69.3202 114.455 67.3219 115.325 66.0688 114.255L13.5047 68.6267L46.154 48.2212C46.7298 47.8532 47.0685 47.2511 47.0685 46.5821V21.2592C47.0685 19.5866 49.0667 18.7169 50.3199 19.7873L102.884 65.3819L70.2346 85.7873V85.8208Z" fill="url(#paint0_linear_3413_2089)"/>
<path d="M434.848 112.988C430.572 112.988 426.864 112.257 423.724 110.797C420.584 109.403 418.146 107.345 416.408 104.624C414.671 101.969 413.703 98.7494 413.502 94.9659H416.709C417.043 99.8779 418.747 103.628 421.82 106.217C424.96 108.872 429.27 110.2 434.748 110.2C440.694 110.2 445.171 108.673 448.177 105.62C451.25 102.566 452.787 98.1189 452.787 92.2776V79.6326C451.117 83.8808 448.645 87.1997 445.371 89.5893C442.164 91.9789 438.423 93.1737 434.147 93.1737C429.67 93.1737 425.795 92.0785 422.522 89.888C419.248 87.6975 416.709 84.5777 414.905 80.5287C413.101 76.4796 412.199 71.7336 412.199 66.2906C412.199 60.8476 413.101 56.1347 414.905 52.152C416.709 48.1694 419.248 45.0828 422.522 42.8923C425.862 40.7018 429.737 39.6066 434.147 39.6066C438.356 39.6066 442.131 40.8678 445.471 43.3901C448.812 45.9125 451.284 49.3642 452.887 53.7451V40.6023H456.194V92.178C456.194 98.8158 454.324 103.927 450.582 107.511C446.908 111.162 441.663 112.988 434.848 112.988ZM415.607 66.2906C415.607 73.7913 417.244 79.6658 420.517 83.9139C423.858 88.1621 428.434 90.2862 434.247 90.2862C437.988 90.2862 441.262 89.3238 444.068 87.3988C446.874 85.4738 449.046 82.7523 450.582 79.2343C452.186 75.7163 452.987 71.634 452.987 66.9875C452.987 59.4868 451.284 53.5128 447.876 49.0655C444.536 44.6181 439.993 42.3945 434.247 42.3945C428.501 42.3945 423.958 44.5186 420.618 48.7668C417.277 53.015 415.607 58.8562 415.607 66.2906Z" fill="white"/>
<path d="M379.884 112.988C375.608 112.988 371.9 112.257 368.76 110.797C365.62 109.403 363.182 107.345 361.445 104.624C359.707 101.969 358.739 98.7494 358.538 94.9659H361.745C362.079 99.8779 363.783 103.628 366.856 106.217C369.996 108.872 374.306 110.2 379.784 110.2C385.73 110.2 390.207 108.673 393.213 105.62C396.286 102.566 397.823 98.1189 397.823 92.2776V79.6326C396.153 83.8808 393.681 87.1997 390.407 89.5893C387.2 91.9789 383.459 93.1737 379.183 93.1737C374.706 93.1737 370.831 92.0785 367.558 89.888C364.284 87.6975 361.745 84.5777 359.941 80.5287C358.137 76.4796 357.235 71.7336 357.235 66.2906C357.235 60.8476 358.137 56.1347 359.941 52.152C361.745 48.1694 364.284 45.0828 367.558 42.8923C370.898 40.7018 374.773 39.6066 379.183 39.6066C383.392 39.6066 387.167 40.8678 390.507 43.3901C393.848 45.9125 396.32 49.3642 397.923 53.7451V40.6023H401.23V92.178C401.23 98.8158 399.36 103.927 395.618 107.511C391.944 111.162 386.699 112.988 379.884 112.988ZM360.643 66.2906C360.643 73.7913 362.28 79.6658 365.553 83.9139C368.894 88.1621 373.47 90.2862 379.283 90.2862C383.024 90.2862 386.298 89.3238 389.104 87.3988C391.91 85.4738 394.082 82.7523 395.618 79.2343C397.222 75.7163 398.023 71.634 398.023 66.9875C398.023 59.4868 396.32 53.5128 392.912 49.0655C389.572 44.6181 385.029 42.3945 379.283 42.3945C373.537 42.3945 368.994 44.5186 365.654 48.7668C362.313 53.015 360.643 58.8562 360.643 66.2906Z" fill="white"/>
<path d="M349.342 85.507C349.342 87.6975 348.607 89.5229 347.137 90.9832C345.734 92.4435 343.897 93.1737 341.625 93.1737C339.42 93.1737 337.583 92.4435 336.113 90.9832C334.643 89.5229 333.908 87.6975 333.908 85.507C333.908 83.1838 334.643 81.292 336.113 79.8317C337.583 78.3714 339.42 77.6412 341.625 77.6412C343.897 77.6412 345.734 78.3714 347.137 79.8317C348.607 81.292 349.342 83.1838 349.342 85.507Z" fill="white"/>
<path d="M272.436 66.2906C272.436 60.9803 273.405 56.2675 275.342 52.152C277.28 47.9702 280.019 44.7177 283.56 42.3945C287.101 40.0712 291.243 38.9096 295.987 38.9096C299.528 38.9096 302.768 39.8057 305.708 41.5979C308.714 43.3238 311.153 45.7798 313.023 48.9659V21.1867H323.145V92.6759H313.725V83.217C311.854 86.5359 309.349 89.1246 306.209 90.9832C303.135 92.7754 299.728 93.6715 295.987 93.6715C291.243 93.6715 287.101 92.5099 283.56 90.1867C280.019 87.7971 277.28 84.5445 275.342 80.4291C273.405 76.2473 272.436 71.5344 272.436 66.2906ZM282.959 66.2906C282.959 72.1982 284.362 76.7451 287.168 79.9313C289.974 83.1174 293.582 84.7105 297.991 84.7105C300.931 84.7105 303.503 83.9803 305.708 82.52C307.979 80.9933 309.75 78.836 311.019 76.0481C312.355 73.2603 313.023 69.9414 313.023 66.0914C313.023 62.1751 312.355 58.8562 311.019 56.1347C309.683 53.4132 307.879 51.3555 305.607 49.9616C303.336 48.5012 300.797 47.7711 297.991 47.7711C293.582 47.7711 289.974 49.3642 287.168 52.5503C284.362 55.7365 282.959 60.3166 282.959 66.2906Z" fill="white"/>
<path d="M263.796 92.6759H253.674V39.9053H263.796V92.6759ZM266.001 27.6585C266.001 29.5171 265.299 31.1102 263.896 32.4378C262.56 33.6989 260.823 34.3295 258.685 34.3295C256.48 34.3295 254.676 33.6989 253.273 32.4378C251.937 31.1102 251.269 29.5171 251.269 27.6585C251.269 25.6672 251.937 24.0741 253.273 22.8793C254.676 21.6181 256.48 20.9875 258.685 20.9875C260.823 20.9875 262.56 21.6181 263.896 22.8793C265.299 24.0741 266.001 25.6672 266.001 27.6585Z" fill="white"/>
<path d="M227.525 65.6932V92.6759H217.403V39.9053H226.823V51.0568C228.694 47.406 231.467 44.5186 235.141 42.3945C238.883 40.2704 242.925 39.2083 247.267 39.2083V49.6629C243.459 49.4637 240.052 49.8952 237.045 50.9573C234.106 52.0193 231.767 53.7783 230.03 56.2343C228.36 58.6239 227.525 61.7769 227.525 65.6932Z" fill="white"/>
<path d="M207.104 72.165C207.104 78.6701 204.866 83.7148 200.39 87.2992C195.98 90.8836 190.034 92.6759 182.551 92.6759H156.194V21.1867H181.148C188.431 21.1867 194.11 22.8129 198.185 26.0655C202.327 29.2516 204.398 33.8649 204.398 39.9053C204.398 43.2906 203.43 46.344 201.492 49.0655C199.555 51.787 196.849 53.9111 193.375 55.4378C197.851 56.6989 201.258 58.7899 203.597 61.7105C205.935 64.5647 207.104 68.0496 207.104 72.165ZM180.447 29.9486H166.316V51.4551H180.447C184.789 51.4551 188.097 50.4926 190.368 48.5676C192.706 46.6427 193.876 44.0207 193.876 40.7018C193.876 37.3829 192.706 34.761 190.368 32.836C188.097 30.9111 184.789 29.9486 180.447 29.9486ZM181.85 60.217H166.316V83.914H181.85C186.526 83.914 190.134 82.8519 192.673 80.7278C195.279 78.6037 196.582 75.6499 196.582 71.8663C196.582 68.2155 195.279 65.3613 192.673 63.3036C190.134 61.2458 186.526 60.217 181.85 60.217Z" fill="white"/>
<defs>
<linearGradient id="paint0_linear_3413_2089" x1="122.823" y1="-14.5062" x2="1.9405" y2="146.458" gradientUnits="userSpaceOnUse">
<stop stop-color="#B9B0F4"/>
<stop offset="1" stop-color="#8373F6"/>
</linearGradient>
</defs>
</svg>
